:SAMPLES-PER-SECOND 30
:FRAME-RANGE 1-564
:FULLY-SPECIFIED
:DEGREES
89
root  39.8858 38.8011 153.918 -177.836 -59.2744 -176.205
RightUpLeg  -14.6366 6.89785 0.100391
RightLeg  35.5503 -7.56651 -6.02174
RightFoot  -18.2885 -0.00574794 1.94509
RightToes  1.21801e-010 1.2921e-014 -6.02303e-014
Spine  -4.56002 -0.26366 -0.389511
Spine1  10.1786 0.0236039 -1.7978
HEad  45.3396 23.8106 3.59661
LeftShoulder1  0.909459 0.326606 -24.5698
LeftArm  -4.41893 10.5793 -50.6329
LeftForeArm  26.6797 0.17547 -12.2156
LeftHand  -0.0121765 5.68028 5.19131
RightShoulder  2.0897 3.33576 25.4412
RightArm  -25.047 2.04545 55.6323
RightForeArm  70.1024 -5.33366 3.71069
RightHand  0.224857 -6.8543 -18.8527
LeftUpLeg  -21.4923 -5.72094 7.19078
LeftLeg  17.3776 -8.5882 -1.02837
LeftFoot  -3.05257 0.484701 -6.43318
LeftToes  1.70735e-010 3.74918e-011 3.68705e-011
90
root  39.3376 39.0293 154.044 -178.198 -56.812 -175.25
RightUpLeg  -14.2567 0.793199 2.03901
RightLeg  30.6185 -7.44004 -4.96297
RightFoot  -17.9769 -0.0389408 1.42733
RightToes  1.21801e-010 1.2921e-014 -6.02303e-014
Spine  -5.0762 -0.161404 -0.190875
Spine1  10.2745 0.0741695 -1.43211
HEad  45.4844 25.1275 3.20374
LeftShoulder1  0.825581 0.576659 -24.2788
LeftArm  -5.08927 10.3097 -50.9116
LeftForeArm  26.3453 -0.137634 -11.9652
LeftHand  0.0267213 6.16336 7.67104
RightShoulder  2.06712 3.27923 25.3632
RightArm  -24.7102 0.937432 55.8301
RightForeArm  69.8502 -5.38924 3.98615
RightHand  0.241277 -6.97715 -18.628
LeftUpLeg  -19.8983 -3.44075 6.83889
LeftLeg  15.7258 -8.77012 -0.3023
LeftFoot  -3.06263 0.431418 -5.70524
LeftToes  1.70735e-010 3.74918e-011 3.68705e-011
91
root  38.8227 39.2228 154.098 -178.489 -54.5841 -174.578
RightUpLeg  -12.9483 -4.38717 3.88947
RightLeg  24.4607 -5.17213 -2.78325
RightFoot  -17.5834 0.0150092 2.45877
RightToes  1.21801e-010 1.2921e-014 -6.02303e-014
Spine  -5.80203 -0.00851439 -0.24758
Spine1  10.7102 0.131926 -0.874788
HEad  45.4055 25.8962 3.06671
LeftShoulder1  0.841989 0.486883 -23.8782
LeftArm  -4.09328 9.71667 -50.4755
LeftForeArm  26.3042 -0.144218 -12.2608
LeftHand  0.00388485 5.82834 7.24645
RightShoulder  2.05311 3.19758 25.5488
RightArm  -25.2358 0.185469 55.8224
RightForeArm  69.4338 -5.37064 3.77694
RightHand  0.165458 -6.49937 -18.6624
LeftUpLeg  -18.2306 -1.41207 6.64622
LeftLeg  14.1236 -8.85337 0.154085
LeftFoot  -3.07228 0.383542 -5.04963
LeftToes  1.70735e-010 3.74918e-011 3.68705e-011
92
root  38.3328 39.3755 154.101 -178.365 -52.6185 -174.634
RightUpLeg  -10.8011 -9.70671 5.28806
RightLeg  17.9695 -4.0231 -1.6654
RightFoot  -16.8801 0.0683007 3.7755
RightToes  1.21801e-010 1.2921e-014 -6.02303e-014
Spine  -6.64832 0.172696 -0.506495
Spine1  11.2304 0.241771 -0.408871
HEad  45.6841 26.3544 3.03674
LeftShoulder1  0.930183 0.194442 -23.9079
LeftArm  -3.35984 9.16294 -49.7799
LeftForeArm  26.1657 0.106546 -12.4802
LeftHand  -0.0115718 5.58234 6.82936
RightShoulder  2.01085 3.0545 25.5931
RightArm  -25.814 -0.393658 55.8178
RightForeArm  69.1568 -5.34079 3.53323
RightHand  0.208174 -6.75469 -18.8078
LeftUpLeg  -16.684 0.113487 6.19615
LeftLeg  12.9629 -8.30142 0.36483
LeftFoot  -2.93343 0.313218 -4.02129
LeftToes  1.70735e-010 3.74918e-011 3.68705e-011
93
root  37.8484 39.459 154.051 -177.393 -50.7456 -175.809
RightUpLeg  -8.49932 -9.019 4.47389
RightLeg  12.5201 -8.48365 -0.555093
RightFoot  -16.0287 -0.014289 2.30283
RightToes  1.21801e-010 1.2921e-014 -6.02303e-014
Spine  -8.43516 -0.126872 0.610553
Spine1  12.7499 0.692004 -3.1745
HEad  46.4266 27.6727 4.21102
LeftShoulder1  0.722401 0.749305 -22.1741
LeftArm  -2.81655 8.82982 -49.9345
LeftForeArm  26.3893 0.228499 -12.6516
LeftHand  -0.00254863 5.76552 6.61146
RightShoulder  2.15233 3.38244 26.1934
RightArm  -27.2 -0.135972 56.6673
RightForeArm  70.4017 -5.16068 2.74442
RightHand  0.228788 -6.86169 -19.045
LeftUpLeg  -15.3091 0.991683 5.13596
LeftLeg  12.2245 -6.85257 0.552281
LeftFoot  -3.10223 0.244508 -3.1361
LeftToes  1.70735e-010 3.74918e-011 3.68705e-011
94
root  37.3415 39.6512 153.977 -176.631 -48.4328 -176.924
RightUpLeg  -6.45932 -2.71643 3.29167
RightLeg  8.20308 -14.1607 0.281681
RightFoot  -9.99664 -0.060815 -0.585858
RightToes  1.21801e-010 1.2921e-014 -6.02303e-014
Spine  -9.89497 0.262399 1.45356
Spine1  13.4393 1.38916 -4.09199
HEad  47.2345 28.3637 4.40844
LeftShoulder1  0.664446 0.928764 -21.8501
LeftArm  -1.89214 8.61271 -49.1928
LeftForeArm  26.8511 0.544718 -12.9363
LeftHand  -0.00692419 5.70391 6.31476
RightShoulder  2.19432 3.52257 26.1491
RightArm  -28.2606 -0.4221 56.9487
RightForeArm  71.7152 -5.00897 2.14921
RightHand  0.242151 -6.93187 -19.173
LeftUpLeg  -12.6862 2.05118 4.18387
LeftLeg  9.38898 -5.25167 0.698981
LeftFoot  -2.26057 0.207917 -2.44731
LeftToes  1.70735e-010 3.74918e-011 3.68705e-011
95
root  36.8635 39.719 153.907 -175.872 -46.1768 -178.462
RightUpLeg  -5.31772 -2.35751 2.13005
RightLeg  7.1494 -13.4533 0.100693
RightFoot  -7.63479 -0.00130901 -1.55706
RightToes  1.21801e-010 1.2921e-014 -6.02303e-014
Spine  -10.712 0.631321 1.60091
Spine1  13.6941 1.9472 -4.61125
HEad  47.9376 29.0261 4.24104
LeftShoulder1  0.662005 0.977174 -22.3558
LeftArm  -0.162264 8.52302 -47.8226
LeftForeArm  25.894 0.485974 -13.4346
LeftHand  -0.00367429 5.7963 6.02086
RightShoulder  2.1888 3.57512 25.8094
RightArm  -28.8204 -0.574523 56.8084
RightForeArm  72.3273 -4.92885 1.81842
RightHand  0.227213 -6.81198 -19.5193
LeftUpLeg  -10.3358 2.70988 2.95583
LeftLeg  7.61411 -3.59628 0.598971
LeftFoot  -2.21344 0.146453 -1.66801
LeftToes  1.70735e-010 3.74918e-011 3.68705e-011
96
root  36.4203 39.7477 153.802 -176.26 -44.3083 -178.92
RightUpLeg  -3.93711 -2.92466 1.31222
RightLeg  6.92155 -11.1269 0.231414
RightFoot  -7.58078 -0.0115365 -1.41361
RightToes  1.21801e-010 1.2921e-014 -6.02303e-014
Spine  -11.0108 0.701193 2.04861
Spine1  13.8318 2.07196 -5.0937
HEad  49.032 29.9164 4.36876
LeftShoulder1  0.512277 1.56594 -23.4312
LeftArm  0.360208 8.29144 -46.4334
LeftForeArm  26.4189 0.987199 -13.6061
LeftHand  -0.0293533 5.25199 5.33722
RightShoulder  2.19414 3.5424 26.0495
RightArm  -28.4224 -0.144651 55.8152
RightForeArm  72.6527 -4.93965 1.95973
RightHand  0.269669 -7.10013 -19.1634
LeftUpLeg  -8.16216 3.39521 2.55447
LeftLeg  6.77941 -2.67981 0.373537
LeftFoot  -2.77593 0.106795 -1.20305
LeftToes  1.70735e-010 3.74918e-011 3.68705e-011
97
root  36.0192 39.7253 153.742 -176.294 -43.0188 -179.259
RightUpLeg  -3.6097 -4.84888 0.236514
RightLeg  7.75647 -7.7866 0.838669
RightFoot  -7.97948 -0.0131603 -1.39265
RightToes  1.21801e-010 1.2921e-014 -6.02303e-014
Spine  -11.2761 0.461232 1.86429
Spine1  13.5272 1.64254 -4.8063
HEad  49.7431 30.2766 4.3791
LeftShoulder1  0.417991 1.9197 -24.1864
LeftArm  -0.038448 8.72673 -46.0718
LeftForeArm  26.4098 1.6102 -13.5461
LeftHand  -0.0348522 5.11567 5.23658
RightShoulder  2.09869 3.30504 25.7365
RightArm  -28.798 0.0119311 55.1511
RightForeArm  72.8806 -4.88439 1.68637
RightHand  0.305847 -7.29464 -19.3944
LeftUpLeg  -6.99999 3.54167 2.0538
LeftLeg  6.53822 -1.70659 0.383619
LeftFoot  -3.44881 0.0533084 -0.471651
LeftToes  1.70735e-010 3.74918e-011 3.68705e-011
